Coordinates
version=1
nRows=6
nColumns=34
inDegrees=yes

Units are S.I. units (second, meters, Newtons, ...)
If the header above contains a line with 'inDegrees', this indicates whether rotational values are in degrees (yes) or radians (no).

endheader
time	pelvis_tilt	pelvis_list	pelvis_rotation	pelvis_tx	pelvis_ty	pelvis_tz	hip_flexion_r	hip_adduction_r	hip_rotation_r	knee_angle_r	ankle_angle_r	subtalar_angle_r	mtp_angle_r	hip_flexion_l	hip_adduction_l	hip_rotation_l	knee_angle_l	ankle_angle_l	subtalar_angle_l	mtp_angle_l	lumbar_extension	lumbar_bending	lumbar_rotation	arm_flex_r	arm_add_r	arm_rot_r	elbow_flex_r	pro_sup_r	arm_flex_l	arm_add_l	arm_rot_l	elbow_flex_l	pro_sup_l
      0.00000000	     -3.04367873	      0.04401728	     21.57553291	      0.45002159	      0.94349020	     -0.09261377	      3.06876387	      1.96707576	     -2.72087192	      4.95964657	      6.14655575	    -10.12288562	      0.00000000	      0.91113866	      3.40614265	     -3.01386217	      0.81390238	     -0.28126821	     -8.53740329	      0.00000000	     -3.63829192	      0.05078791	      2.82704799	      0.17725231	     -4.13653050	     -4.58763951	     26.92641624	     90.03109097	      4.70566502	     -5.39452055	     14.13336198	     21.60830592	     76.68190250
      0.01666670	     -4.13374361	      0.32629871	     21.65122410	      0.45295303	      0.94459976	     -0.09368172	      3.82302278	      1.45244868	     -3.78102572	      4.80927170	      7.51718864	     -7.63236050	      0.00000000	      1.83469930	      4.65894043	     -4.42716860	      0.58487397	      0.75776139	     -5.18689249	      0.00000000	     -1.57007846	     -0.46268812	      2.05744904	     -0.03538929	     -3.67719300	     -7.32653288	     26.74738454	     89.96580355	      3.61556651	     -4.62403590	      6.66896327	     21.44955726	     75.54577967
      0.03333330	     -4.45636902	      0.85699228	     22.06426746	      0.45005917	      0.95338241	     -0.09299100	      3.47304498	      0.93358992	     -5.31597521	      3.88498398	      7.63997575	     -6.60536598	      0.00000000	      2.09561715	      5.31953415	     -6.07719963	      0.66741019	      1.44897117	     -1.62983020	      0.00000000	     -0.93097648	     -1.46472948	      1.91191100	      0.01656025	     -3.07284986	     -7.62930298	     26.07861775	     89.98155784	      3.54870590	     -4.82243032	      6.87762976	     21.25731480	     75.73081800
      0.05000000	     -4.35485980	      1.17505354	     22.19431246	      0.45251457	      0.94775778	     -0.09396778	      3.07287210	      0.68421555	     -5.85794649	      3.38882789	      7.51067133	     -6.43046002	      0.00000000	      1.49234334	      5.64149879	     -6.48232746	      0.00000000	      0.52190833	     -0.96928731	      0.00000000	     -1.04824081	     -1.88505804	      2.03538100	     -0.08839924	     -2.96963460	     -7.64841951	     25.92103398	     89.96679179	      3.36258382	     -5.14061654	      6.97431276	     21.25531557	     75.75286558
      0.06666670	     -3.64772836	      1.48605257	     22.50132094	      0.45163341	      0.94867810	     -0.09346233	      2.04202766	      0.73668285	     -6.79192730	      2.80281093	      7.59142426	     -5.55876968	      0.00000000	      0.58727134	      5.65253928	     -7.17732598	      0.00000000	      0.82776450	      0.70957126	      0.00000000	     -1.95700869	     -1.96800864	      2.00701270	      0.17456662	     -3.01260765	     -7.40394044	     25.71659081	     89.90997542	      3.66998802	     -5.32878728	      7.69185592	     21.43095606	     75.85866096
      0.08333330	     -3.64769313	      1.49899772	     22.69034150	      0.45159155	      0.94609917	     -0.09353635	      2.07859411	      0.73584527	     -6.74632652	      2.66349661	      7.58305601	     -5.51110234	      0.00000000	      0.49458399	      5.67947323	     -7.19685658	      0.00000000	      0.76048948	      0.78608997	      0.00000000	     -1.85451225	     -1.95969846	      1.90271317	      0.17600986	     -3.06796882	     -7.38932794	     25.70159344	     89.90869236	      3.93586259	     -5.34341528	      7.70833022	     21.52220088	     75.85916626
